<svg width="120" height="120" viewBox="0 0 120 120" fill="none" xmlns="http://www.w3.org/2000/svg">
  <circle cx="60" cy="60" r="55" fill="#6F45D3" />
  <path d="M40 35H50V85H40V35Z" fill="#FFD700" />
  <path d="M60 35H70V85H60V35Z" fill="#FFD700" />
  <path d="M40 55H70V65H40V55Z" fill="#FFD700" />
  <path d="M80 45C80 40.0294 84.0294 36 89 36C93.9706 36 98 40.0294 98 45C98 49.9706 93.9706 54 89 54C84.0294 54 80 49.9706 80 45Z" fill="#FFD700" />
  <path d="M80 75C80 70.0294 84.0294 66 89 66C93.9706 66 98 70.0294 98 75C98 79.9706 93.9706 84 89 84C84.0294 84 80 79.9706 80 75Z" fill="#FFD700" />
</svg> 